<svg xmlns='http://www.w3.org/2000/svg' xmlns:xlink="http://www.w3.org/1999/xlink" id='sprite' color="red" >
    <symbol id='rejected' >
        <path d='M 7.71875 6.28125 L 6.28125 7.71875 L 23.5625 25 L 6.28125 42.28125 L 7.71875 43.71875 L 25 26.4375 L 42.28125 43.71875 L 43.71875 42.28125 L 26.4375 25 L 43.71875 7.71875 L 42.28125 6.28125 L 25 23.5625 Z'/>
    </symbol>
    <symbol id='completed' >
        <path d="M 42.875 8.625 C 42.84375 8.632813 42.8125 8.644531 42.78125 8.65625 C 42.519531 8.722656 42.292969 8.890625 42.15625 9.125 L 21.71875 40.8125 L 7.65625 28.125 C 7.410156 27.8125 7 27.675781 6.613281 27.777344 C 6.226563 27.878906 5.941406 28.203125 5.882813 28.597656 C 5.824219 28.992188 6.003906 29.382813 6.34375 29.59375 L 21.25 43.09375 C 21.46875 43.285156 21.761719 43.371094 22.050781 43.328125 C 22.339844 43.285156 22.59375 43.121094 22.75 42.875 L 43.84375 10.1875 C 44.074219 9.859375 44.085938 9.425781 43.875 9.085938 C 43.664063 8.746094 43.269531 8.566406 42.875 8.625 Z"/>
    </symbol>
    <symbol id='in_progress' >
        <path d="M 38.96875 0 C 35.675781 -0.0117188 28.804688 -0.121094 25.125 3.5625 L 24.46875 4.21875 L 24.46875 4.25 C 20.539063 8.207031 20.082031 14.121094 22.90625 18.5625 L 2.40625 37.3125 L 2.375 37.34375 C 1.476563 38.242188 0.53125 39.75 0.25 41.625 C -0.03125 43.5 0.453125 45.734375 2.375 47.65625 C 4.296875 49.578125 6.53125 50.0625 8.40625 49.78125 C 10.28125 49.5 11.789063 48.554688 12.6875 47.65625 L 12.71875 47.65625 L 12.71875 47.625 C 12.71875 47.625 17.425781 42.300781 22.1875 37 C 24.570313 34.347656 26.953125 31.710938 28.78125 29.75 C 29.695313 28.769531 30.484375 27.953125 31.03125 27.40625 C 31.183594 27.253906 31.261719 27.167969 31.375 27.0625 C 35.820313 29.992188 41.796875 29.585938 45.78125 25.59375 L 46.4375 24.9375 C 48.234375 23.144531 49.066406 20.523438 49.5 17.96875 C 49.933594 15.414063 49.929688 12.890625 49.9375 11.21875 C 49.941406 10.835938 49.933594 10.460938 49.625 10.09375 C 49.316406 9.726563 48.738281 9.628906 48.4375 9.6875 C 47.835938 9.808594 47.59375 10.125 47.59375 10.125 L 47.5625 10.15625 C 47.5625 10.15625 41.84375 15.902344 41.0625 16.6875 C 41.03125 16.707031 41.023438 16.710938 40.96875 16.71875 C 40.789063 16.746094 40.507813 16.777344 40.15625 16.78125 C 39.457031 16.789063 38.496094 16.742188 37.5625 16.65625 C 36.628906 16.570313 35.691406 16.425781 34.96875 16.28125 C 34.605469 16.207031 34.300781 16.128906 34.09375 16.0625 C 34.019531 16.039063 33.976563 16.023438 33.9375 16 C 33.914063 15.964844 33.894531 15.929688 33.875 15.875 C 33.808594 15.675781 33.757813 15.351563 33.6875 15 C 33.546875 14.296875 33.421875 13.382813 33.34375 12.46875 C 33.265625 11.554688 33.222656 10.628906 33.25 9.9375 C 33.265625 9.589844 33.277344 9.308594 33.3125 9.125 C 33.332031 9.035156 33.363281 8.984375 33.375 8.96875 C 34.242188 8.101563 39.9375 2.4375 39.9375 2.4375 L 39.96875 2.40625 L 39.96875 2.375 C 39.96875 2.375 40.265625 2.164063 40.40625 1.59375 C 40.476563 1.308594 40.453125 0.753906 40.09375 0.40625 C 39.734375 0.0585938 39.347656 0 38.96875 0 Z M 37.65625 2 C 36.414063 3.242188 32.566406 7.089844 31.9375 7.71875 C 31.5625 8.09375 31.535156 8.414063 31.46875 8.75 C 31.402344 9.085938 31.359375 9.464844 31.34375 9.875 C 31.308594 10.691406 31.355469 11.648438 31.4375 12.625 C 31.519531 13.601563 31.648438 14.570313 31.8125 15.375 C 31.894531 15.777344 31.988281 16.152344 32.09375 16.46875 C 32.199219 16.785156 32.265625 17.046875 32.59375 17.375 C 32.929688 17.710938 33.179688 17.769531 33.5 17.875 C 33.820313 17.980469 34.183594 18.074219 34.59375 18.15625 C 35.414063 18.320313 36.417969 18.4375 37.40625 18.53125 C 38.394531 18.625 39.351563 18.695313 40.15625 18.6875 C 40.558594 18.683594 40.933594 18.640625 41.25 18.59375 C 41.566406 18.546875 41.835938 18.632813 42.28125 18.1875 C 42.773438 17.691406 46.699219 13.714844 47.96875 12.4375 C 47.945313 13.996094 47.949219 15.742188 47.625 17.65625 C 47.226563 20.015625 46.421875 22.265625 45.09375 23.59375 L 44.4375 24.25 C 40.574219 28.117188 34.628906 28.015625 30.84375 24.21875 L 25.84375 19.21875 C 22.0625 15.417969 21.964844 9.464844 25.8125 5.59375 L 26.46875 4.90625 C 28.957031 2.414063 34.210938 2.058594 37.65625 2 Z M 24 20 C 24.164063 20.1875 24.320313 20.382813 24.5 20.5625 L 29.5 25.5625 C 29.636719 25.699219 29.792969 25.808594 29.9375 25.9375 C 29.867188 26.007813 29.828125 26.046875 29.75 26.125 C 29.171875 26.699219 28.390625 27.511719 27.46875 28.5 C 25.625 30.476563 23.226563 33.125 20.84375 35.78125 C 16.089844 41.074219 11.433594 46.375 11.40625 46.40625 L 11.375 46.4375 C 10.765625 47.035156 9.515625 47.789063 8.125 48 C 6.71875 48.210938 5.207031 47.957031 3.65625 46.40625 C 2.105469 44.855469 1.820313 43.316406 2.03125 41.90625 C 2.242188 40.515625 3.027344 39.265625 3.625 38.65625 L 3.65625 38.625 Z"/>
    </symbol>
    <symbol id='arrowDown' viewBox="0 0 24 24">
        <path d="M0 7.33l2.829-2.83 9.175 9.339 9.167-9.339 2.829 2.83-11.996 12.17z"/>
    </symbol>
    <symbol id='arrowUp' viewBox="0 0 24 24">
        <path d="M0 16.67l2.829 2.83 9.175-9.339 9.167 9.339 2.829-2.83-11.996-12.17z"/>
    </symbol>
    <symbol id='arrowLeft' viewBox="0 0 24 24">
        <path d="M16.67 0l2.83 2.829-9.339 9.175 9.339 9.167-2.83 2.829-12.17-11.996z"/>
    </symbol>
    <symbol id='arrowRight' viewBox="0 0 24 24">
        <path d="M7.33 24l-2.83-2.829 9.339-9.175-9.339-9.167 2.83-2.829 12.17 11.996z"/>
    </symbol>
    <symbol id='collapsed' viewBox="0 0 16 16">
        <path d="M1 8a.5.5 0 0 1 .5-.5h13a.5.5 0 0 1 0 1h-13A.5.5 0 0 1 1 8zm7-8a.5.5 0 0 1 .5.5v3.793l1.146-1.147a.5.5 0 0 1 .708.708l-2 2a.5.5 0 0 1-.708 0l-2-2a.5.5 0 1 1 .708-.708L7.5 4.293V.5A.5.5 0 0 1 8 0zm-.5 11.707-1.146 1.147a.5.5 0 0 1-.708-.708l2-2a.5.5 0 0 1 .708 0l2 2a.5.5 0 0 1-.708.708L8.5 11.707V15.5a.5.5 0 0 1-1 0v-3.793z"/>
    </symbol>
    <symbol id='breakUp' viewBox="0 0 16 16">
        <path d="M1 8a.5.5 0 0 1 .5-.5h13a.5.5 0 0 1 0 1h-13A.5.5 0 0 1 1 8zM7.646.146a.5.5 0 0 1 .708 0l2 2a.5.5 0 0 1-.708.708L8.5 1.707V5.5a.5.5 0 0 1-1 0V1.707L6.354 2.854a.5.5 0 1 1-.708-.708l2-2zM8 10a.5.5 0 0 1 .5.5v3.793l1.146-1.147a.5.5 0 0 1 .708.708l-2 2a.5.5 0 0 1-.708 0l-2-2a.5.5 0 0 1 .708-.708L7.5 14.293V10.5A.5.5 0 0 1 8 10z"/>
    </symbol>
    <symbol id='search' viewBox="0 0 560 560">
        <path d="m90.742188 180.734375c-5.519532 0-10 4.476563-10 9.996094s4.480468 10 10 10c5.519531 0 10-4.480469 10-10s-4.480469-9.996094-10-9.996094zm0 0"/><path d="m370.921875 300.21875c-1.871094-1.875-4.417969-2.929688-7.070313-2.929688-.101562.019532-3.945312-.195312-7.070312 2.929688l-7.066406 7.066406-22.976563-22.972656c50.703125-71.074219 42.992188-169.117188-19.449219-231.554688-70.335937-70.335937-184.1875-70.347656-254.53125 0-70.335937 70.332032-70.347656 184.1875 0 254.53125 62.285157 62.289063 160.289063 70.28125 231.550782 19.449219l22.976562 22.976563-7.066406 7.066406c-3.902344 3.902344-3.90625 10.238281 0 14.144531l126.421875 126.410157c19.535156 19.546874 51.15625 19.558593 70.695313.003906 19.546874-19.53125 19.554687-51.15625 0-70.695313zm-49.496094 35.355469-21.410156-21.410157c2.488281-2.230468 4.921875-4.519531 7.273437-6.875 2.355469-2.351562 4.644532-4.785156 6.875-7.269531l21.410157 21.410157zm-254.527343-42.425781c-62.523438-62.519532-62.53125-163.722657 0-226.25 62.519531-62.523438 163.722656-62.53125 226.25 0 62.382812 62.378906 62.699218 163.558593 0 226.25-63.40625 63.414062-164.582032 61.671874-226.25 0zm296.953124 28.28125 28.277344 28.28125-42.417968 42.417968-28.28125-28.277344zm119.34375 161.769531c-11.71875 11.730469-30.683593 11.734375-42.410156 0l-76.933594-76.929688 42.417969-42.417969 76.929688 76.9375c11.726562 11.714844 11.738281 30.679688-.003907 42.410157zm0 0"/><path d="m279.011719 81.042969c-54.683594-54.683594-143.273438-54.714844-197.980469-.007813-54.570312 54.582032-54.570312 143.394532 0 197.980469 54.714844 54.710937 143.253906 54.714844 197.972656 0 54.582032-54.585937 54.585938-143.394531.007813-197.972656zm-14.148438 183.828125c-46.894531 46.894531-122.785156 46.90625-169.691406.003906-46.773437-46.789062-46.773437-122.914062 0-169.703125 46.871094-46.867187 122.8125-46.878906 169.699219.011719 46.78125 46.78125 46.777344 122.902344-.007813 169.6875zm0 0"/><path d="m180.023438 80.042969c-26.726563 0-51.835938 10.398437-70.703126 29.277343-10.9375 10.9375-18.988281 23.859376-23.925781 38.414063-1.773437 5.226563 1.023438 10.90625 6.253907 12.679687 5.238281 1.777344 10.910156-1.035156 12.683593-6.253906 3.941407-11.621094 10.378907-21.949218 19.128907-30.703125 15.09375-15.097656 35.179687-23.414062 56.5625-23.414062 5.523437 0 10-4.476563 10-10 0-5.523438-4.476563-10-10-10zm0 0"/>
    </symbol>
</svg>
